<svg height="519pt" viewBox="-65 0 519 519.54971" width="519pt" xmlns="http://www.w3.org/2000/svg"><path d="m178.871094 487.078125h32.472656v32.472656h-32.472656zm0 0" fill="#1e88e5"/><path d="m178.871094 422.132812h32.472656v32.472657h-32.472656zm0 0" fill="#1e88e5"/><path d="m6.023438 28.910156 21.832031-24.035156 145.105469 131.792969-21.832032 24.035156zm0 0" fill="#4dd0e1"/><path d="m16.511719 113.652344c-8.964844 0-16.238281-7.273438-16.238281-16.238282v-97.414062h97.417968c8.960938 0 16.234375 7.273438 16.234375 16.234375 0 8.964844-7.273437 16.238281-16.234375 16.238281h-64.945312v64.941406c0 8.964844-7.273438 16.238282-16.234375 16.238282zm0 0" fill="#80deea"/><path d="m211.34375 389.664062h-32.472656v-202.527343l181.710937-181.730469 22.957031 22.972656-172.195312 172.199219zm0 0" fill="#1e88e5"/><path d="m373.703125 113.652344c-8.964844 0-16.238281-7.273438-16.238281-16.238282v-64.941406h-64.941406c-8.964844 0-16.238282-7.273437-16.238282-16.238281 0-8.960937 7.273438-16.234375 16.238282-16.234375h97.414062v97.414062c0 8.964844-7.273438 16.238282-16.234375 16.238282zm0 0" fill="#42a5f5"/></svg>